<svg xmlns="http://www.w3.org/2000/svg" viewBox="0 0 410 404"><path fill="#41D1FF" d="M399.641 59.525 215.32 388.545c-5.877 10.553-20.76 10.487-26.543-.12L10.86 59.61c-6.276-11.269 3.799-24.285 16.055-21.278l178.584 43.949a14.995 14.995 0 0 0 6.817-.004l171.29-43.943c12.227-3.135 22.34 9.737 16.125 21.022Z"/><path fill="#BD34FE" d="M292.965.004 156.438 34.357a7.5 7.5 0 0 0-5.493 8.858l53.927 253.671a7.5 7.5 0 0 0 14.594.466L275.23 58.614a7.5 7.5 0 0 1 5.457-5.432l106.067-28.334c10.03-2.68 7.957-17.515-2.408-17.51l-86.851.045A7.5 7.5 0 0 0 292.965.004Z"/></svg>



